<svg id="Lag_1" data-name="Lag 1" xmlns="http://www.w3.org/2000/svg" width="775.7" height="200" viewBox="0 0 775.7 200"><defs><style>.cls-1{fill:#00305b;}</style></defs><title>ESCOT</title><polygon class="cls-1" points="7.4 187.5 20.4 187.5 20.4 183.1 7.4 183.1 7.4 176.3 21.7 176.3 21.7 172 0 172 0 199.5 21.8 199.5 21.8 195.2 7.4 195.2 7.4 187.5"/><path class="cls-1" d="M50.9,185.9h0c4.7-.5,7.6-3.2,7.6-6.4,0-7.6-9.4-7.5-17.3-7.5H33.3v27.5h7.4V188.1H43c3.1,0,4,.8,5.1,2.8l4.4,8.6h8.2l-5.9-10.8A5,5,0,0,0,50.9,185.9ZM43,183.8H40.6v-7.4H43c3.7,0,7.8.3,7.8,3.6S46.7,183.8,43,183.8Z"/><polygon class="cls-1" points="92.8 183.1 78.1 183.1 78.1 172 70.7 172 70.7 199.5 78.1 199.5 78.1 187.5 92.8 187.5 92.8 199.5 100.1 199.5 100.1 172 92.8 172 92.8 183.1"/><polygon class="cls-1" points="127 193.6 126.9 193.6 117.5 172 109.6 172 122.2 199.5 131.2 199.5 143.6 172 136.3 172 127 193.6"/><polygon class="cls-1" points="160.4 187.5 173.5 187.5 173.5 183.1 160.4 183.1 160.4 176.3 174.7 176.3 174.7 172 153.1 172 153.1 199.5 174.8 199.5 174.8 195.2 160.4 195.2 160.4 187.5"/><path class="cls-1" d="M204,185.9h0c4.7-.5,7.6-3.2,7.6-6.4,0-7.6-9.4-7.5-17.3-7.5h-7.9v27.5h7.4V188.1h2.4c3.1,0,4,.8,5.1,2.8l4.4,8.6h8.2l-5.9-10.8A5,5,0,0,0,204,185.9Zm-7.9-2.2h-2.4v-7.4h2.4c3.7,0,7.8.3,7.8,3.6S199.7,183.8,196.1,183.8Z"/><polygon class="cls-1" points="236.5 193.6 236.4 193.6 227 172 219.1 172 231.7 199.5 240.7 199.5 253.1 172 245.8 172 236.5 193.6"/><path class="cls-1" d="M269,179.7c0-3,3.3-3.8,5.8-3.8a24.5,24.5,0,0,1,7.5,1.2l.7-4.5a36.3,36.3,0,0,0-8.8-1c-6.5,0-12.8,2.2-12.8,8.4,0,9.1,16.1,6.9,16.1,12.2,0,2.5-3.7,3.5-6.5,3.5a22.4,22.4,0,0,1-8.3-1.7l-.7,5a42.4,42.4,0,0,0,9.4,1.1c7.4,0,13.8-2.3,13.8-8.3C285.1,182.5,269,184.5,269,179.7Z"/><polygon class="cls-1" points="303.8 187.5 316.9 187.5 316.9 183.1 303.8 183.1 303.8 176.3 318.1 176.3 318.1 172 296.5 172 296.5 199.5 318.2 199.5 318.2 195.2 303.8 195.2 303.8 187.5"/><path class="cls-1" d="M335.6,190.3c0,2,0,4.8-4.8,4.8a12.5,12.5,0,0,1-3.5-.5v4.8a27.5,27.5,0,0,0,5.6.5c7.5,0,10-4.1,10-7V172h-7.4Z"/><polygon class="cls-1" points="362.8 187.5 375.9 187.5 375.9 183.1 362.8 183.1 362.8 176.3 377.1 176.3 377.1 172 355.5 172 355.5 199.5 377.2 199.5 377.2 195.2 362.8 195.2 362.8 187.5"/><polygon class="cls-1" points="412.1 192.6 412 192.6 398.1 172 389 172 389 199.5 396.1 199.5 396.1 178.9 396.2 178.9 410.2 199.5 419.2 199.5 419.2 172 412.1 172 412.1 192.6"/><path class="cls-1" d="M442.1,172H432v27.5h10c11.2,0,21.2-2.8,21.2-13.8S453.3,172,442.1,172Zm1.4,23.2h-4.1V176.3h4.1c6.1,0,12.1,3.4,12.1,9.4S449.6,195.2,443.5,195.2Z"/><path class="cls-1" d="M490.8,171.5c-11.7,0-18,5.7-18,14.2s6.2,14.3,18,14.3,18-6,18-14.3S502.3,171.5,490.8,171.5Zm0,24.1c-7.5,0-10.3-5-10.3-10s3-9.8,10.3-9.8,10.3,5,10.3,9.8S498.4,195.7,490.8,195.7Z"/><polygon class="cls-1" points="540.8 192.9 540.7 192.9 532 172 520.2 172 520.2 199.5 527.3 199.5 527.3 176.9 527.4 176.8 537.2 199.5 544.3 199.5 554.2 176.8 554.3 176.8 554.3 199.5 561.3 199.5 561.3 172 549.5 172 540.8 192.9"/><polygon class="cls-1" points="595.1 192.9 595 192.9 586.3 172 574.5 172 574.5 199.5 581.6 199.5 581.6 176.9 581.7 176.8 591.5 199.5 598.6 199.5 608.5 176.8 608.6 176.8 608.6 199.5 615.6 199.5 615.6 172 603.8 172 595.1 192.9"/><polygon class="cls-1" points="636.2 187.5 649.3 187.5 649.3 183.1 636.2 183.1 636.2 176.3 650.5 176.3 650.5 172 628.8 172 628.8 199.5 650.6 199.5 650.6 195.2 636.2 195.2 636.2 187.5"/><path class="cls-1" d="M161.7,111.2H153q-2.3,4.4-9.4,13.3a79.1,79.1,0,0,1-12.8,13.3,15.9,15.9,0,0,1-6.5,2.5,87.4,87.4,0,0,1-9.3,1.4q-4.4.5-10.2.5h-10q-8.9,0-14.1-.5a21.4,21.4,0,0,1-8.1-2.2,9,9,0,0,1-4.2-5.1,28.5,28.5,0,0,1-1.1-8.9V89.3H84.7A57.8,57.8,0,0,1,97,90.5a21.9,21.9,0,0,1,9.3,4.4q2.6,2.1,5.5,7.7a36,36,0,0,1,3.6,9.4h9.2V59.4h-9.2a35.5,35.5,0,0,1-3.6,9q-2.8,5.2-5.5,7.2A24.9,24.9,0,0,1,96.5,80a55.1,55.1,0,0,1-11.9,1.2H67.3V32.8h34.9a72.7,72.7,0,0,1,9.9.7q8.3,1.3,16.7,8.6t11.8,14.5h9.2V24.7H1.1v6.8l8.3,1.1a52.8,52.8,0,0,1,8.6,2q4.9,1.7,6.2,3.7a9.8,9.8,0,0,1,1.3,5.3v88.8a9.3,9.3,0,0,1-1.5,5.6q-1.5,2.1-6,3.5a46.3,46.3,0,0,1-8,1.2l-8.9.8v6.8H158.5Z"/><path class="cls-1" d="M203.9,150.8a99.5,99.5,0,0,0,21.2,2.1,91.5,91.5,0,0,0,21.4-2.2,59.4,59.4,0,0,0,16.2-6.3,30.6,30.6,0,0,0,10.1-9.4,20.8,20.8,0,0,0,3.8-11.7,21.5,21.5,0,0,0-6.6-16q-6.6-6.4-19.3-10.1-5.2-1.6-12-3.2l-13.2-3.3q-11-2.7-16.2-6.2t-5.2-9q0-5.9,6-9.8t15.4-3.9A35.3,35.3,0,0,1,238.7,64a33,33,0,0,1,9.9,6.1,44.7,44.7,0,0,1,7.5,8.9,115.9,115.9,0,0,1,6.2,10.4h7.6L269,57.5h-7.6l-5.3,3.9a96.1,96.1,0,0,0-14.2-4.4,81.5,81.5,0,0,0-19.3-2.2,76.9,76.9,0,0,0-19.6,2.4,52.2,52.2,0,0,0-14.8,6,30.6,30.6,0,0,0-9.2,9.1A19.4,19.4,0,0,0,176,82.8a23,23,0,0,0,6.1,15.5q6.1,6.9,18.6,10.7l11.6,3.1,13.5,3.2q11.3,2.7,16.6,6.3t5.4,9.1q0,6.5-6.3,10.9t-18.2,4.4a39.6,39.6,0,0,1-15.4-2.8,47.2,47.2,0,0,1-11.9-7.1,52,52,0,0,1-9.1-9.5,84,84,0,0,1-6.4-10h-7.6l1.1,33.6h7.4l6-4.5A95.5,95.5,0,0,0,203.9,150.8Z"/><path class="cls-1" d="M389.1,145.3a47.1,47.1,0,0,0,11.1-7.8,57.7,57.7,0,0,0,8.5-10.3l-7.6-3.4a53.2,53.2,0,0,1-17.3,15,46.1,46.1,0,0,1-21.6,4.9,47.1,47.1,0,0,1-15.2-2.3,30.5,30.5,0,0,1-11.9-7.3,35.6,35.6,0,0,1-7.6-12.6q-2.9-7.8-2.9-18.9,0-19.6,8.5-30.5t24.8-10.9q13.1,0,22.2,7.3t15.6,22.9h7.6l-.8-33.9H395l-5.4,3.6a95.1,95.1,0,0,0-14.3-4.3,84.4,84.4,0,0,0-18.7-1.9A94.7,94.7,0,0,0,330,58.6a66.2,66.2,0,0,0-21.3,10.3,48.8,48.8,0,0,0-14.1,16,42.6,42.6,0,0,0,0,40A44.7,44.7,0,0,0,308.2,140a65.4,65.4,0,0,0,20.6,9.6,93.9,93.9,0,0,0,25.4,3.3,83.2,83.2,0,0,0,19.6-2A68.2,68.2,0,0,0,389.1,145.3Z"/><path class="cls-1" d="M546.7,122.6a43,43,0,0,0,4.5-19.3A38.5,38.5,0,0,0,545.9,83a49.1,49.1,0,0,0-14.5-15.2,70.3,70.3,0,0,0-21-9.5,100.5,100.5,0,0,0-52.2.1,67.6,67.6,0,0,0-21.3,9.9,49.6,49.6,0,0,0-14.2,15.9,41.6,41.6,0,0,0-5.2,20.7,38,38,0,0,0,5.3,19.8,47.9,47.9,0,0,0,14.4,15.1,69.2,69.2,0,0,0,21.1,9.7,94.3,94.3,0,0,0,25.5,3.4q16.7,0,28.8-3.8a67.9,67.9,0,0,0,21.1-10.7A45.3,45.3,0,0,0,546.7,122.6Zm-32.2-1.7a41.3,41.3,0,0,1-5.6,13.5,25.8,25.8,0,0,1-9.8,9,30.9,30.9,0,0,1-14.7,3.3q-8.8,0-14.7-3.2a27.4,27.4,0,0,1-9.9-9.1,40.7,40.7,0,0,1-5.6-13.5,73.8,73.8,0,0,1-1.8-16.5q0-20.5,8.1-31.8t23.8-11.3q9.2,0,15.3,3.6a28.7,28.7,0,0,1,9.9,9.6,41.2,41.2,0,0,1,5.2,13.6,80.8,80.8,0,0,1,1.5,15.7A77,77,0,0,1,514.5,120.9Z"/><path class="cls-1" d="M559,84.1h6.8a52,52,0,0,1,8.6-12.7q5.9-6.7,11-7.2l6.9-.4,7-.2h4.1v73.3a7.5,7.5,0,0,1-1.1,4.2q-1.1,1.7-4.5,2.8a33.9,33.9,0,0,1-6.2.9l-7.1.6v5h68.9v-5l-7.2-.9a44.2,44.2,0,0,1-6.2-1.2q-3.3-1-4.4-2.8a7.5,7.5,0,0,1-1.1-4.1V63.6h4.1l7,.2,6.9.4q5,.5,11,7.2A52.2,52.2,0,0,1,672,84.1h6.8V57.5H559Z"/><path class="cls-1" d="M576.7,1.5C294-6.4,173.4,19.8,172.2,20.1l1.4,6.2C174.8,26,294.8-.1,576.5,7.8,691.7,11,773.8,26.1,774.6,26.2l1.2-6.2C774.9,19.9,692.4,4.7,576.7,1.5Z"/></svg>